<?xml version="1.0" encoding="UTF-8"?>
<svg width="31px" height="37px" viewBox="0 0 31 37" version="1.1" xmlns="http://www.w3.org/2000/svg" xmlns:xlink="http://www.w3.org/1999/xlink">
    <title>图形logo_黄</title>
    <g id="页面-1" stroke="none" stroke-width="1" fill="none" fill-rule="evenodd">
        <g id="个人中心_收藏" transform="translate(-20.000000, -67.000000)" fill="#D7A03C">
            <g id="编组" transform="translate(20.000000, 65.000000)">
                <g id="编组-7" transform="translate(0.000000, 2.000000)">
                    <path d="M25.7889475,14.1483414 C25.2166981,15.1998999 23.9674083,15.2440449 23.3456489,14.4659879 C22.5559203,13.4779587 23.2722953,12.521765 23.9705975,12.0837099 C25.7745198,11.6334867 26.361197,13.0967829 25.7889475,14.1483414 M18.495713,24 L18,23.5383429 C18.11014,22.7576583 18.9231889,21.5302734 19.4253612,21 C19.5697855,21.0192743 19.714541,21.0385485 19.8589652,21.0576686 C20.3220503,21.9771279 19.5870104,23.9346217 18.495713,24 M16.6382713,20 C16.4681262,19.9606949 16.2978675,19.921547 16.1276088,19.882242 C16.0850725,19.7842937 16.0425363,19.6861882 16,19.5882399 C16.0094399,19.2624794 16.0296844,19.1393758 16.1702587,18.9999214 C16.3783907,18.457354 17.2726756,18.3108246 17.6595962,18 L17.8723912,18 L18,18.294002 C17.7191925,19.0733433 17.2023884,19.6160679 16.6382713,20 M14.4954332,16 C14.2212465,15.7092799 13.8226032,15.5869339 14.0865438,15 C14.3906493,14.2957684 15.4082961,14.3132888 16.0798965,14 L16.6932988,14 C16.795487,14.0926503 16.8978118,14.1853007 17,14.2778025 C16.9829231,14.3518931 16.9658462,14.4259837 16.9489059,14.5000742 C16.7793664,14.8682999 14.9709908,15.8935412 14.4954332,16 M14,10.4000428 C14.4231797,10.0026727 14.9129954,10.1786402 15.5517051,10 C15.982765,10.0533462 16.4139631,10.1067992 16.8448848,10.1600385 L17,10.2800941 C16.9828571,10.3466966 16.965576,10.413406 16.9482949,10.4800086 C16.1035945,10.6533034 15.2586175,10.8267052 14.4137788,11 C14.2758065,10.8933077 14.1379724,10.7867223 14,10.6800299 C14.0315207,10.454458 14.0456221,10.5258713 14,10.4000428 M28.1440557,11.3574528 C27.6472008,11.3971757 27.5583775,10.5713865 27.2612361,10.2060475 C26.8368276,9.68419451 26.0278423,9.12108008 24.9815325,8.92190598 C23.177727,8.57866633 21.9282341,8.64216706 20.4069975,9.10723301 C18.5507309,3.27761393 16.0370336,-0.080092236 8.25625769,0.00145165706 C6.45966915,0.719121838 3.41289369,0.0690086045 2.59627516,1.72841984 C2.72479126,2.09543729 2.81819444,2.4754626 3.0635686,2.7227518 C3.94971907,3.63763791 8.50662816,1.53106403 9.24288944,2.67030075 C8.95421395,2.97955212 8.68510734,2.73184332 8.25625769,2.87968533 C6.93057104,3.33677871 5.56879995,4.03458743 3.89448213,3.97863965 C3.7580552,4.37852643 4.25574284,4.87604208 4.41368164,5.33928972 C5.16507062,5.69595684 6.08133772,5.11731689 6.95805072,5.12990515 C7.94967878,5.1443117 9.04470262,5.31844917 9.91780718,5.44391207 C9.95250375,5.49636312 9.98706154,5.5486743 10.0217581,5.60098547 L10.0217581,5.86254136 C9.22567994,5.9149924 8.42918541,5.96730358 7.63310725,6.01961476 C6.83702908,6.21137578 6.04067334,6.40341655 5.24459517,6.59531744 L5.24459517,6.64762862 C5.52147382,7.13591289 5.79835247,7.6244769 6.07536991,8.11290104 C7.24242384,7.86589158 8.41988673,6.91324071 9.71018288,7.11856908 C9.74474067,7.17088025 9.77943724,7.22319143 9.81399503,7.27550261 C8.79294428,7.86868897 7.77147718,8.46173547 6.75042643,9.05478196 C6.56389766,9.20444228 6.98733463,9.71972136 7.06186287,9.99680275 C7.80617375,9.61314083 8.55048463,9.22919917 9.29479551,8.84553725 C9.46619658,8.96330734 9.44995859,8.8998066 9.50241981,9.15954418 C9.16447519,9.79762864 8.41350256,10.6069133 7.73705818,10.8865124 C7.54428402,11.4658516 8.50662816,12.3764018 8.67164507,13.0321098 C5.83332662,13.7820898 2.99403667,14.5323496 0.155718219,15.2823296 L0,15.386952 C0.121160432,15.945171 0.242320865,16.50339 0.363481297,17.061609 C1.5671748,17.401212 4.56662414,16.5412946 6.12727598,16.5382175 C6.17918206,16.5905287 6.23108813,16.6428398 6.2829942,16.6952909 L6.2829942,16.8522244 C5.63791552,17.494505 1.76633313,18.1594444 0.778868668,18.2128745 C1.00384125,18.8930597 1.22895261,19.5735246 1.45392519,20.2538496 C2.98501556,19.8149392 4.61020303,18.6982215 6.54266335,18.6838149 C6.6464755,18.7710935 6.75042643,18.858372 6.85423858,18.9455107 C6.80011192,19.1460835 2.36033846,21.1979684 1.86931256,21.3004927 C2.02503078,21.8237444 2.18088778,22.3471359 2.336606,22.8703875 C3.64050321,22.046976 5.19837933,20.9064805 7.32153202,21.1434193 L7.32153202,21.4051151 C5.60585589,22.0374649 3.83466523,22.7383507 2.64818123,23.9170307 C2.82124773,24.4054548 2.99445303,24.8938789 3.16738074,25.3823031 C4.5001455,24.7892566 5.83318783,24.1960702 7.1658138,23.6030237 C7.21771988,23.6205074 7.26962595,23.6379911 7.32153202,23.6554748 C7.33888031,23.7251298 7.35608981,23.7949246 7.37343809,23.8647195 C6.42413986,24.8201677 4.85738142,25.8153389 3.58276811,26.376635 C3.71836232,27.0661915 4.03396235,27.7456773 4.3098695,28.3129878 C5.54964744,28.5204142 6.82412195,27.4326494 7.68501332,26.9521979 C9.6725718,25.8433128 11.0462785,25.2403356 13.7084772,25.2775409 C13.7430349,25.3299919 13.7777315,25.3823031 13.8122893,25.4346143 L13.8643342,25.5392366 C13.5138988,25.9538097 12.2290153,26.2745303 11.6834464,26.2720127 C11.614192,26.2894964 11.5449377,26.3068402 11.4756833,26.3243239 L11.4756833,27.0046489 C12.2070871,27.0177966 13.6361695,26.693859 14.4873458,26.8475755 C14.5393907,26.9173704 14.5912968,26.9871652 14.6432028,27.0569601 C14.4286392,27.4108298 12.1110469,28.0035966 11.5794954,28.1557745 C11.614192,28.9233781 11.6487498,29.6909817 11.6834464,30.4584454 C12.0802364,30.269202 15.350319,28.1950779 15.5260224,29.4118023 C14.3473105,30.1547888 13.1101695,31.0917743 11.8391646,31.6098508 C11.5822712,32.1691887 11.7948918,32.9304982 11.7353525,33.4937525 C12.7607056,33.0218329 15.2297137,31.3123484 16.3567972,31.2435327 L16.4606093,31.4004662 C16.2885143,32.7851738 12.7316992,34.1290395 11.7872585,35.1682696 C11.6291809,35.989583 11.9446422,36.4652791 12.1507398,37 C14.048226,36.5675236 16.0167708,34.6713134 17.4472411,33.6508259 C17.9837889,33.3716464 18.5204755,33.092467 19.0570233,32.8134274 C19.5588745,32.2378646 20.0608645,31.6620221 20.5628545,31.0865991 C22.7134869,28.9163846 24.4179213,26.6839282 25.0284422,22.9226987 C24.9765362,22.1204075 24.9246301,21.3178365 24.872724,20.5154055 C26.3104112,19.5617755 27.6309628,18.0371985 28.1959618,16.2242106 C28.5255792,15.1666576 28.4838045,14.1486877 28.8710183,13.2413545 C29.2636447,12.3214331 30.8013968,12.2035232 31,11.2526906 L31,11.2003794 C30.2155799,10.8583986 28.8675486,11.2996867 28.1440557,11.3574528" id="Fill-1"></path>
                </g>
            </g>
        </g>
    </g>
</svg>